PathFileType	4	(X/Y/Z)	Patient4_TMGait_0pt7_02_right_36.trc.trc
DataRate	CameraRate	NumFrames	NumMarkers	Units	OrigDataRate	OrigDataStartFrame	OrigNumFrames
85.889570552147	85.889570552147	6	33	mm	85.889570552147	18	       141
Frame#	Time	Sacral			L.Shoulder			Chest			R.Shoulder			Neck			R.ASIS			L.ASIS			R.Thigh.Superior			R.Thigh.Lateral			R.Thigh.Inferior			R.Patella			L.Thigh.Superior			L.Thigh.Lateral			L.Thigh.Inferior			L.Patella			L.Shank.Superior			L.Shank.Lateral			L.Shank.Inferior			R.Shank.Superior			R.Shank.Lateral			R.Shank.Inferior			R.Heel			R.Midfoot.Superior			R.Midfoot.Lateral			R.Toe			L.Heel			L.Midfoot.Lateral			L.Midfoot.Superior			L.Toe			L.Elbow			L.Wrist			R.Elbow			R.Wrist			
		X1	Y1	Z1	X2	Y2	Z2	X3	Y3	Z3	X4	Y4	Z4	X5	Y5	Z5	X6	Y6	Z6	X7	Y7	Z7	X8	Y8	Z8	X9	Y9	Z9	X10	Y10	Z10	X11	Y11	Z11	X12	Y12	Z12	X13	Y13	Z13	X14	Y14	Z14	X15	Y15	Z15	X16	Y16	Z16	X17	Y17	Z17	X18	Y18	Z18	X19	Y19	Z19	X20	Y20	Z20	X21	Y21	Z21	X22	Y22	Z22	X23	Y23	Z23	X24	Y24	Z24	X25	Y25	Z25	X26	Y26	Z26	X27	Y27	Z27	X28	Y28	Z28	X29	Y29	Z29	X30	Y30	Z30	X31	Y31	Z31	X32	Y32	Z32	X33	Y33	Z33	

18	40.827928571429	777.767972499285	1011.048203084629	430.952892901375	1005.593377754694	1428.744694618576	257.495188802524	1090.614134154802	1350.159513547142	425.699441988303	999.108899108104	1434.902242075248	590.304860047814	998.161844147914	1486.798586537868	410.732107080838	992.338603862636	939.809777867896	567.182821912927	1000.471735379042	951.471280154131	292.190814088517	1074.849207345535	781.062543409194	542.134031309988	1040.532674033184	659.319285496229	621.676830809145	1133.328685496985	625.940345456057	544.034636073480	1173.168264465136	540.680059065288	566.628168955696	1009.900939247655	730.749468558639	325.066678429460	902.815188834228	632.024865908602	257.410660781220	962.765359088976	540.010581155615	325.426048815706	949.561231867628	472.198045921253	334.945192825731	914.585113482230	405.685259609746	324.301641047390	813.349152384678	304.616772479710	267.652775870877	841.731853017347	188.166700666293	342.135990643052	1150.934459416259	450.704465013507	577.733298803954	1090.120559251725	342.075343854080	643.024826255042	1154.788804046596	250.841135575843	595.343419109570	1054.505998033037	65.366683199459	571.496636849801	1217.511213032472	139.722640092161	612.971694176588	1138.282944412874	63.625193636055	644.597667382240	1340.850419896435	102.603434520008	639.109822417603	695.803907114943	40.767100326967	376.000206572758	772.814630893753	36.100733951063	299.173899560497	855.776744253246	95.458447521553	329.501680727091	984.528764562556	40.199190132851	305.915599691293	1049.639528808004	1108.864143376932	95.718006561256	1298.244794368000	1108.560255540790	149.730784206400	894.089032302131	1105.952992205959	715.872144141704	892.157549428280	842.893321801097	730.334233384265	
19	40.839571428571	779.557323269551	1009.168395463036	433.407360455370	1005.535125959071	1427.388568037811	259.736501162755	1091.267671697287	1348.830689917342	427.554192553792	1000.128122339472	1433.494948285831	592.469491835182	998.540921192982	1485.202199813154	412.789532995624	994.447809278142	937.257837648638	568.770434981703	1001.637896502522	950.279336673795	293.820682326132	1073.973866940721	775.074542939978	544.092469221839	1036.032552834390	653.678664381689	622.969779367198	1128.109433095986	618.840867990302	545.024212236759	1166.525857225294	535.358434063243	566.604845066633	1008.036068066232	728.744068885091	325.879393863257	898.992031862050	631.704934633739	257.886405541311	957.342088526859	538.716331126040	325.556129594529	943.410441650860	471.146832680597	334.933482506098	908.126739007785	404.964478070952	324.359302347527	806.131604924947	304.530538701942	267.727544564645	833.949831684710	187.822580603121	342.095972901673	1147.105013348075	445.758219263349	578.186532841848	1089.819410098839	334.883084861952	643.131422670017	1158.041670317429	246.019210013563	595.368769195058	1064.249903322218	57.330434341000	571.208311238064	1225.261895997710	136.413606889238	612.446282834634	1148.266575422797	58.055961122664	644.206305971055	1349.954030487022	102.945123608674	638.399049756140	687.547364364577	40.633225933598	375.970149485782	764.576580108085	35.995436556406	299.166577995552	847.502386826654	95.368316370613	329.500253092581	976.287586555094	40.121579528135	305.914760236259	1051.231709560653	1108.852883620544	96.508044068695	1298.299235760745	1120.629089681406	153.567399729359	885.745919279848	1108.785779271790	718.533654348069	875.710020124113	846.239487436174	732.671385306163	
20	40.851214285714	781.512443182443	1007.025510773074	436.198032356380	1005.294811537982	1425.816630468598	262.124061692868	1091.949459035168	1347.418886002595	429.525275928881	1001.161098143037	1431.959352105651	594.792143863170	998.862949421434	1483.431333116938	414.987718258026	996.824764280997	934.497007261723	570.471513819459	1002.979759881482	948.968103271369	295.616986018435	1073.541051977382	769.106459307375	546.201592903921	1031.914132507159	648.094196648606	624.164076418818	1123.392648402404	612.037286910579	546.020763925347	1160.200198881057	529.978169179515	566.554347647128	1006.478124946347	726.618359857379	326.778914678719	895.480856780423	631.256670758165	258.570870637521	952.360460597510	537.317997628085	325.869767301740	937.770210583539	469.903452343964	335.088689008170	902.021052785666	404.076612507143	324.592174028304	799.121280598876	304.427094518648	267.957872276266	826.250874534679	187.389640639150	342.125276533501	1143.150192871935	440.633188855112	578.507071123235	1088.428388931699	328.011007189830	642.724890611352	1159.553678093515	241.190566120247	594.993607074343	1070.643244512826	50.887024211251	570.235916967080	1230.311974696692	132.520066350978	611.317768125596	1154.715820245366	53.099715456987	643.202398761125	1355.782791931965	101.216695057127	637.144543314667	679.261336911482	40.467386994819	375.929697761294	756.333835300325	35.858015270035	299.156380194792	839.219686635347	95.255561115280	329.520421928986	968.066172715190	40.035471926774	305.907239339523	1052.466526253009	1108.498932565569	97.455418313035	1297.518816628307	1131.576757785770	157.464003313578	877.621831557638	1111.755859924228	721.268557700173	860.474760544838	849.881936434543	734.796107823811	
21	40.862857142857	783.562524741966	1004.710381900196	439.275012968630	1004.920101228914	1424.067894618665	264.654465239016	1092.674247321996	1345.957442102877	431.625856444995	1002.210336065295	1430.336856429047	597.275780198892	999.165131202365	1481.539415086154	417.336228785681	999.372562037843	931.607987514479	572.295417093610	1004.456202062260	947.578935113965	297.598235318433	1073.572676416793	763.380853183347	548.465213816369	1028.298519203398	642.754037213699	625.236391513091	1119.368705762660	605.787070783513	547.069779186286	1154.410171127323	524.743215689717	566.524701409649	1005.295673284809	724.420171821493	327.794442128174	892.411037367024	630.654936342840	259.513941730610	948.016143248944	535.810288891642	326.416391975267	932.843885923106	468.422487481533	335.456695860373	896.427974438870	402.990465506870	325.040398607230	792.441288415840	304.332608938177	268.378894961349	818.700322570160	186.880393963993	342.238625629760	1139.277402839742	435.512511128976	578.708754477633	1086.173752976677	321.608174120643	641.921552467824	1159.491314989574	236.420962673397	594.290787263923	1073.699190121310	46.018817142643	568.764216418284	1232.793453440130	128.040866500512	609.675210290243	1157.711299257397	48.768930340865	641.754948036373	1358.536950254601	97.392649667243	635.424247818817	670.947394023912	40.341469680175	375.871478002122	748.091110979967	35.716849828687	299.142341387226	830.961050280013	95.130026202525	329.554841407511	959.873219555942	39.938229729342	305.892306345224	1053.302094157245	1107.791627613077	98.598426274386	1295.998106804759	1141.284282939533	161.387507645595	869.908773035951	1114.769559601214	724.025082450726	846.411692612917	853.633152137060	736.820908867389	
22	40.874500000000	785.622920750680	1002.343504683014	442.570830783171	1004.488508368950	1422.203897212175	267.320736694208	1093.463229290710	1344.484729176540	433.866464114628	1003.295357247768	1428.684727143886	599.919669549117	999.505853288839	1479.601107068504	419.843128015695	1001.978965021102	928.701555218926	574.256094772600	1006.004985596934	946.162881031241	299.781231721389	1074.060991681631	758.121854100730	550.882764419033	1025.283668574259	637.851847006034	626.186995614952	1116.185057742654	600.318231144731	548.216700761538	1149.344528920890	519.856242516005	566.555080228005	1004.549549334084	722.219700343307	328.957301601077	889.922002792841	629.881561873550	260.755313758640	944.523561240177	534.199888963748	327.231925377325	928.854856063271	466.671175671934	336.061588013890	891.526575596170	401.687544465077	325.727873874194	786.234855597259	304.292246277681	269.015585148529	811.383829406007	186.328814005077	342.440928307160	1135.683343038361	430.598720901538	578.814443775832	1083.354345765780	315.839062787481	640.898039328418	1158.101408802601	231.818483691539	593.359796119610	1073.640448221930	42.633001519181	567.024105665185	1232.951501028420	123.094440375005	607.661275912864	1157.538599405622	45.089035546139	640.073881431579	1358.550848854567	91.712655419010	633.361194123963	662.618758552746	40.371493229970	375.789020410090	739.859002539072	35.625404203841	299.123289285392	822.776633149163	95.010546385243	329.589378289135	951.717925286616	39.827165239728	305.869597438931	1053.679722338236	1106.733984348034	99.985117285708	1293.832898433258	1149.642396795961	165.305761199148	862.801700219285	1117.725026076556	726.753250150578	833.522307522520	857.339398779968	738.818412706883	
23	40.886142857143	787.601741229626	1000.065841034695	446.006030458701	1004.101508824937	1420.307004399795	270.110699677926	1094.339783270146	1343.042602497860	436.252356427732	1004.448538243518	1427.073651614047	602.715562758258	999.958312429917	1477.708293981413	422.511127474062	1004.525517499324	925.913411187009	576.371062707807	1007.546004952162	944.778742022899	302.175235098300	1074.968125962323	753.542981743859	553.445836188797	1022.942864722336	633.577949290942	627.044892875009	1113.928456919298	595.812629700210	549.499213051207	1145.143223158402	515.506497597726	566.680123330183	1004.287543951626	720.107177095370	330.298903452893	888.156638843428	628.928862141112	262.318933699766	942.105674381833	532.508649751827	328.334243022169	926.036758674306	464.636550114094	336.899928267917	887.508814287945	400.168109412129	326.657266181515	780.661711020222	304.373077583374	269.879670334664	804.408805534134	185.794733686365	342.725857820723	1132.530237549101	426.096490882337	578.860846561627	1080.296196539904	310.868046944193	639.871635443540	1155.673123295890	227.521898389336	592.317158704771	1070.864392337539	40.562826185797	565.253948930285	1231.103053947776	117.910040548355	605.460894981568	1154.644627095936	42.083815568978	638.377632978890	1356.244524668096	84.664274195604	631.119581560966	654.306584434508	40.722848115326	375.678779762470	731.657062317583	35.668742094961	299.098772937672	814.736552475881	94.927088414106	329.604005036235	943.608807919045	39.698757127202	305.839091406991	1053.525356580273	1105.345669880963	101.670921430451	1291.117593045069	1156.553842911028	169.187414601856	856.490143408362	1120.519718346663	729.411002282085	821.857230867676	860.875388315127	740.817978942231	
